<svg width="164" height="43" viewBox="0 0 164 43" fill="none" xmlns="http://www.w3.org/2000/svg">
<g clip-path="url(#clip0_2189_22)">
<path d="M95.1 12L104.5 8.5L95.1 4.9V0L111.2 6.5V10.5L95.1 17V12Z" fill="white"/>
<path d="M6.2 43C2.8 43 0 41.3 0 37.5V37.3C0 32.7 4 31.1 8.9 31.1H11.2V30.2C11.2 28.3 10.4 27.2 8.4 27.2C6.6 27.2 5.7 28.2 5.6 29.6H0.6C1 25.4 4.3 23.4 8.7 23.4C13.2 23.4 16.5 25.3 16.5 30V42.6H11.4V40.4C10.4 41.8 8.7 43 6.2 43ZM11.2 36.4V34.6H9.1C6.5 34.6 5.2 35.3 5.2 37V37.2C5.2 38.5 6 39.4 7.8 39.4C9.6 39.3 11.2 38.3 11.2 36.4ZM28.4 43C23.2 43 19.4 39.8 19.4 33.4V33.1C19.4 26.7 23.4 23.3 28.4 23.3C32.7 23.3 36.2 25.5 36.6 30.4H31.6C31.3 28.6 30.3 27.4 28.5 27.4C26.3 27.4 24.7 29.2 24.7 32.9V33.5C24.7 37.3 26.1 39 28.5 39C30.3 39 31.6 37.7 31.9 35.6H36.7C36.4 40 33.5 43 28.4 43ZM48 43C42.8 43 39 39.8 39 33.4V33.1C39 26.7 43 23.3 48 23.3C52.3 23.3 55.8 25.5 56.2 30.4H51.2C50.9 28.6 49.9 27.4 48.1 27.4C45.9 27.4 44.3 29.2 44.3 32.9V33.5C44.3 37.3 45.7 39 48.1 39C49.9 39 51.2 37.7 51.5 35.6H56.3C56 40 53.1 43 48 43ZM67.7 43C62.3 43 58.6 39.8 58.6 33.5V33.1C58.6 26.8 62.5 23.3 67.6 23.3C72.3 23.3 76.2 25.9 76.2 32.2V34.5H63.9C64.1 37.9 65.6 39.2 67.8 39.2C69.8 39.2 70.9 38.1 71.3 36.8H76.2C75.6 40.3 72.6 43 67.7 43ZM64 31H71C70.9 28.2 69.6 27 67.5 27C65.9 27.1 64.4 28 64 31ZM79.4 23.8H84.7V26.6C85.6 24.8 87.5 23.4 90.4 23.4C93.8 23.4 96.1 25.5 96.1 30V42.6H90.8V30.8C90.8 28.6 89.9 27.6 88 27.6C86.2 27.6 84.7 28.7 84.7 31.1V42.6H79.4V23.8V23.8ZM105.8 18.1V23.8H109.4V27.7H105.8V36.6C105.8 38 106.4 38.7 107.7 38.7C108.5 38.7 109 38.6 109.5 38.4V42.5C108.9 42.7 107.8 42.9 106.5 42.9C102.4 42.9 100.5 41 100.5 37.2V27.7H98.3V23.8H100.5V20.3L105.8 18.1ZM129.2 42.6H124V39.8C123.1 41.6 121.3 43 118.5 43C115.1 43 112.6 40.9 112.6 36.5V23.8H117.9V35.8C117.9 38 118.8 39 120.6 39C122.4 39 123.9 37.8 123.9 35.5V23.8H129.2V42.6ZM133.1 23.8H138.4V27.3C139.5 24.8 141.3 23.6 144.1 23.6V28.8C140.5 28.8 138.4 29.9 138.4 33V42.7H133.1V23.8ZM154.8 43C149.4 43 145.7 39.8 145.7 33.5V33.1C145.7 26.8 149.6 23.3 154.7 23.3C159.4 23.3 163.3 25.9 163.3 32.2V34.5H151.1C151.3 37.9 152.8 39.2 155 39.2C157 39.2 158.1 38.1 158.5 36.8H163.4C162.6 40.3 159.7 43 154.8 43ZM151 31H158.1C158 28.2 156.7 27 154.6 27C153 27.1 151.5 28 151 31Z" fill="white"/>
</g>
<defs>
<clipPath id="clip0_2189_22">
<rect width="163.2" height="43" fill="white"/>
</clipPath>
</defs>
</svg>
