<svg width="150" viewBox="0 0 296 296" fill="none" xmlns="http://www.w3.org/2000/svg">
<g clip-path="url(#clip0_8_19)">
<path d="M171.429 85.714C171.429 38.452 132.976 0 85.714 0C38.452 0 0 38.452 0 85.714C0 132.976 38.452 171.428 85.714 171.428C132.976 171.428 171.429 132.976 171.429 85.714ZM85.714 161.905C43.704 161.905 9.524 127.724 9.524 85.715C9.524 43.706 43.705 9.525 85.714 9.525C127.723 9.525 161.904 43.706 161.904 85.715C161.904 127.724 127.724 161.905 85.714 161.905Z" fill="#5BBE42"/>
<path d="M85.714 47.619C64.709 47.619 47.619 64.709 47.619 85.714C47.619 106.719 64.709 123.809 85.714 123.809C106.719 123.809 123.809 106.719 123.809 85.714C123.809 64.709 106.719 47.619 85.714 47.619ZM85.714 114.286C69.957 114.286 57.143 101.472 57.143 85.715C57.143 69.958 69.957 57.144 85.714 57.144C101.471 57.144 114.285 69.958 114.285 85.715C114.285 101.472 101.471 114.286 85.714 114.286Z" fill="#5BBE42"/>
<path d="M85.714 71.429C77.838 71.429 71.428 77.839 71.428 85.715C71.428 93.591 77.838 100 85.714 100C93.59 100 100 93.59 100 85.714C100 77.838 93.591 71.429 85.714 71.429ZM85.714 90.476C83.085 90.476 80.952 88.343 80.952 85.714C80.952 83.085 83.085 80.952 85.714 80.952C88.343 80.952 90.476 83.085 90.476 85.714C90.476 88.343 88.343 90.476 85.714 90.476Z" fill="#5BBE42"/>
<path d="M285.733 142.857C248.052 142.857 213.757 157.548 188.2 181.467L167.395 160.662L195.833 157.11L194.652 147.662L152.885 152.886L147.661 194.653L157.109 195.834L160.661 167.396L181.466 188.201C157.547 213.758 142.856 248.053 142.856 285.734V295.796L280.5 280.5L295.795 142.857H285.733ZM188.195 194.929L265.819 272.553L152.381 285.158C152.529 250.329 166.119 218.624 188.195 194.929ZM272.552 265.819L194.928 188.195C218.623 166.119 250.323 152.528 285.157 152.381L272.552 265.819Z" fill="#5BBE42"/>
</g>
<defs>
<clipPath id="clip0_8_19">
<rect width="295.796" height="295.796" fill="white"/>
</clipPath>
</defs>
</svg>
