<svg width="85" height="86" viewBox="0 0 85 86" fill="none" xmlns="http://www.w3.org/2000/svg">
<g clip-path="url(#clip0_2189_8)">
<path fill-rule="evenodd" clip-rule="evenodd" d="M14.1324 -0.0146428H70.6263L71.3592 0.000486833L72.0722 0.0610055L72.7826 0.151783L73.4781 0.275353L74.1611 0.436738L74.8342 0.628391L75.4898 0.852827L76.1304 1.11004L76.7561 1.39499L77.3643 1.71021L77.9576 2.0582L78.531 2.4289L79.0819 2.8248L79.6153 3.25349L80.1313 3.70488L80.6174 4.17644L81.0886 4.67322L81.5298 5.18764L81.9536 5.72982L82.3449 6.29215L82.7089 6.87215L83.0479 7.47232L83.362 8.08761L83.6487 8.72056L83.8954 9.36864L84.1198 10.0319L84.3092 10.7127L84.4688 11.4037L84.5909 12.1072L84.6807 12.8183L84.738 13.5471L84.7554 14.2835V71.4431L84.738 72.1772L84.6807 72.9007L84.5909 73.6188L84.4688 74.3206L84.3092 75.0121L84.1198 75.6924L83.8954 76.3516L83.6487 76.9999L83.362 77.6377L83.0479 78.2487L82.7089 78.8489L82.3449 79.4276L81.9536 79.9902L81.5298 80.5261L81.0886 81.0458L80.6174 81.5441L80.1313 82.0156L79.6153 82.4658L79.0819 82.8892L78.531 83.2857L77.9576 83.6555L77.3643 83.9984L76.7561 84.3146L76.1304 84.6039L75.4898 84.8558L74.8342 85.0809L74.1611 85.2738L73.4781 85.4345L72.7826 85.5578L72.0722 85.6489L71.3592 85.7078L70.6263 85.7239H14.1324L13.4013 85.7078L12.6863 85.6489L11.9764 85.5578L11.2824 85.4345L10.5939 85.2738L9.92634 85.0809L9.26949 84.8558L8.6286 84.6039L7.99817 84.3146L7.38918 83.9984L6.80114 83.6555L6.22381 83.2857L5.6729 82.8892L5.1377 82.4658L4.62394 82.0156L4.1366 81.5441L3.66522 81.0458L3.22549 80.5261L2.80695 79.9902L2.40985 79.4276L2.04428 78.8489L1.70526 78.2487L1.39272 77.6377L1.10667 76.9999L0.857718 76.3516L0.635237 75.6924L0.444539 75.0121L0.285625 74.3206L0.163785 73.6188L0.073733 72.9007L0.0154643 72.1772L-0.000427246 71.4431V14.2835L0.0154643 13.5471L0.073733 12.8183L0.163785 12.1072L0.285625 11.4037L0.444539 10.7127L0.635237 10.0319L0.857718 9.36864L1.10667 8.72056L1.39272 8.08761L1.70526 7.47232L2.04428 6.87215L2.40985 6.29215L2.80695 5.72982L3.22549 5.18764L3.66522 4.67322L4.1366 4.17644L4.62394 3.70488L5.1377 3.25349L5.6729 2.8248L6.22381 2.4289L6.80114 2.0582L7.38918 1.71021L7.99817 1.39499L8.6286 1.11004L9.26949 0.852827L9.92634 0.628391L10.5939 0.436738L11.2824 0.275353L11.9764 0.151783L12.6863 0.0610055L13.4013 0.000486833L14.1324 -0.0146428V-0.0146428Z" fill="white"/>
<path fill-rule="evenodd" clip-rule="evenodd" d="M7.06064 71.4323H13.6503V42.8487H7.06064V71.4323V71.4323Z" fill="#404144"/>
<path fill-rule="evenodd" clip-rule="evenodd" d="M43.1778 49.3857H42.8014L42.43 49.3983L42.0636 49.4134L41.7096 49.4361L41.3606 49.4563L41.0166 49.4891L40.6776 49.5269L40.3435 49.5647L40.0195 49.6127L39.7029 49.6606L39.3888 49.7135L39.0822 49.7715L38.7855 49.832L38.4939 49.8951L38.2072 49.9657L37.928 50.0363L37.6563 50.1094L37.3921 50.1851L37.1378 50.2658L36.8885 50.3465L36.6442 50.4272L36.4124 50.5129L36.1856 50.5986L35.9662 50.6894L35.7543 50.7752L35.5499 50.8659L35.353 50.9567L35.161 51.0475L34.9816 51.1383L34.8071 51.2291L34.6425 51.3224L34.483 51.4132L35.7244 55.6244L35.8665 55.5387L36.0161 55.4529L36.1681 55.3672L36.3277 55.2865L36.4922 55.2058L36.6617 55.1251L36.8362 55.0444L37.0157 54.9713L37.2026 54.8956L37.3921 54.82L37.584 54.7443L37.7785 54.6762L37.9754 54.6107L38.1773 54.5426L38.3817 54.477L38.5886 54.419L38.8005 54.3585L39.0124 54.3056L39.2293 54.2526L39.4412 54.2047L39.6605 54.1568L39.8824 54.1139L40.0992 54.0761L40.3211 54.0383L40.538 54.0055L40.7623 53.9803L40.9842 53.9525L41.2011 53.9374L41.4229 53.9197L41.6398 53.9046L41.8641 53.8996H42.081L42.43 53.9046L42.769 53.9197L43.0856 53.9475L43.3822 53.9803L43.6689 54.0282L43.9406 54.0811L44.1949 54.1442L44.4317 54.2148L44.661 54.2955L44.8729 54.3812L45.0674 54.472L45.2468 54.5678L45.4164 54.6712L45.5759 54.7771L45.7255 54.8906L45.8576 55.0016L45.9797 55.1201L46.0944 55.2436L46.1966 55.3622L46.2863 55.4857L46.3661 55.6143L46.4409 55.7379L46.5032 55.8589L46.5605 55.9825L46.6104 56.1061L46.6453 56.2246L46.6777 56.3431L46.7051 56.4541L46.7251 56.5675L46.7375 56.6734L46.7475 56.7768V56.8727V57.1021L45.9573 57.1097L45.1845 57.1299L44.4317 57.1677L43.7013 57.2207L42.9909 57.2913L42.3029 57.382L41.6298 57.4829L40.9842 57.6065L40.3585 57.7401L39.7602 57.8965L39.1769 58.068L38.621 58.2546L38.0926 58.4588L37.584 58.6782L37.0954 58.9152L36.6343 59.1674L36.2005 59.4347L35.7917 59.7172L35.4053 60.0172L35.0514 60.34L34.7173 60.6721L34.4157 61.0204L34.139 61.3901L33.8847 61.7706L33.6679 62.167L33.4734 62.5851L33.3089 63.0138L33.1768 63.4639L33.0696 63.9246L32.9898 64.4017L32.9475 64.9L32.9325 65.4092L32.9375 65.7145L32.9574 66.0199L32.9948 66.3253L33.0497 66.6254L33.117 66.9255L33.1967 67.2255L33.2915 67.5203L33.4036 67.8098L33.5258 68.0938L33.6679 68.3724L33.8224 68.6458L33.9869 68.9136L34.1664 69.1761L34.3634 69.428L34.5752 69.6746L34.7971 69.9104L35.0339 70.1354L35.2832 70.3497L35.5499 70.5535L35.8241 70.7464L36.1158 70.9284L36.4224 71.0999L36.7415 71.2552L37.0755 71.3947L37.4195 71.5233L37.7735 71.6358L38.1499 71.7324L38.5313 71.8125L38.9276 71.8768L39.3365 71.9253L39.7602 71.952L40.194 71.9626L40.4582 71.9573L40.72 71.9467L40.9742 71.9359L41.2285 71.9144L41.4753 71.8877L41.7245 71.8554L41.9688 71.8181L42.2131 71.7752L42.4499 71.7215L42.6843 71.668L42.9161 71.609L43.1454 71.5447L43.3673 71.4751L43.5891 71.4L43.806 71.3143L44.0179 71.2285L44.2248 71.1375L44.4317 71.0409L44.6336 70.9446L44.8305 70.8374L45.02 70.7249L45.2045 70.6122L45.3914 70.4891L45.5659 70.3658L45.7404 70.2372L45.9099 70.1033L46.0744 69.9639L46.229 69.8191L46.3811 69.6746L46.5306 69.5246L46.6727 69.369L46.8098 69.2084H46.8846L47.605 71.4323H52.967V58.7639L52.9595 58.2823L52.9346 57.8107L52.8972 57.3442L52.8448 56.8827L52.775 56.4288L52.6853 55.9825L52.5856 55.5488L52.4635 55.1251L52.3189 54.709L52.1668 54.3056L51.9848 53.9147L51.7904 53.5339L51.5735 53.1657L51.3392 52.8102L51.08 52.4672L50.8057 52.1419L50.5091 51.8292L50.185 51.5367L49.841 51.2568L49.4746 50.9945L49.0882 50.7474L48.6744 50.523L48.2407 50.3137L47.7795 50.1271L47.2984 49.9556L46.7849 49.8093L46.2489 49.6807L45.6881 49.5748L45.0998 49.4941L44.4841 49.4361L43.8434 49.3983L43.1778 49.3857V49.3857ZM46.937 63.5282V63.6568L46.932 63.7907L46.922 63.9246L46.912 64.0641L46.8946 64.198L46.8796 64.3374L46.8572 64.4713L46.8273 64.6052L46.8148 64.6534L46.7949 64.7233L46.7799 64.7876L46.7625 64.8304L46.7425 64.8839L46.7201 64.9376L46.6627 65.0715L46.5979 65.2001L46.5306 65.3287L46.4558 65.4573L46.3761 65.5806L46.2913 65.7092L46.2016 65.8323L46.1069 65.9503L46.0047 66.0681L45.9049 66.1861L45.7928 66.2986L45.6781 66.411L45.5609 66.5182L45.4388 66.6201L45.3067 66.722L45.1746 66.8183L45.035 66.9096L44.8979 67.0006L44.7508 67.0811L44.6012 67.1612L44.4492 67.2364L44.2896 67.3007L44.1301 67.365L43.9606 67.424L43.7911 67.4722L43.6216 67.5203L43.4421 67.5579L43.2626 67.5899L43.0806 67.6169L42.8912 67.6328L42.6992 67.6489H42.5098H42.3403L42.1757 67.6384L42.0162 67.6275L41.8567 67.6061L41.7046 67.5793L41.555 67.5526L41.408 67.515L41.2634 67.4722L41.1313 67.4293L40.9942 67.3756L40.867 67.3168L40.7449 67.2525L40.6227 67.1882L40.513 67.1131L40.4009 67.0326L40.3012 66.9524L40.199 66.8612L40.1092 66.7648L40.0195 66.6683L39.9397 66.5611L39.8649 66.4486L39.7926 66.3361L39.7278 66.2128L39.6705 66.0895L39.6231 65.9609L39.5758 65.8217L39.5384 65.6823L39.506 65.5378L39.4785 65.3822L39.4636 65.2268L39.4536 65.0662L39.4486 64.9L39.4536 64.7124L39.4686 64.5356L39.496 64.3589L39.5259 64.1874L39.5683 64.0265L39.6231 63.8659L39.6854 63.7158L39.7552 63.5658L39.835 63.421L39.9198 63.2871L40.0145 63.153L40.1192 63.0244L40.2314 62.9013L40.3535 62.7886L40.4806 62.6761L40.6177 62.569L40.7623 62.4618L40.9094 62.3655L41.0689 62.2742L41.2335 62.1831L41.403 62.0974L41.5825 62.017L41.7619 61.9421L41.9539 61.8725L42.1533 61.8026L42.3552 61.7439L42.5621 61.6848L42.779 61.6258L42.9959 61.5777L43.2252 61.5295L43.452 61.4866L43.6913 61.4491L43.9132 61.4168L44.145 61.3848L44.3794 61.358L44.6236 61.331L44.8655 61.3152L45.1197 61.2937L45.374 61.2829L45.6357 61.2723L45.7928 61.2667L45.9523 61.2614L46.1168 61.2562H46.2764H46.4409H46.6029H46.7674H46.937V63.5282V63.5282Z" fill="#404144"/>
<path fill-rule="evenodd" clip-rule="evenodd" d="M71.1668 50.0136V62.5689V62.7566L71.1568 62.9386L71.1394 63.1157L71.1144 63.2871L71.087 63.4586L71.0496 63.6192L71.0023 63.7801L70.9449 63.9302L70.8976 64.0532L70.8378 64.1765L70.7754 64.2999L70.7106 64.4232L70.6433 64.5409L70.5685 64.6642L70.4888 64.7876L70.404 64.9053L70.3143 65.0233L70.2245 65.1411L70.1223 65.2591L70.0226 65.3716L69.9179 65.4788L69.8057 65.5859L69.6886 65.6878L69.5664 65.7894L69.4393 65.886L69.3122 65.9823L69.1751 66.0681L69.038 66.1538L68.8884 66.229L68.7413 66.3039L68.5868 66.3737L68.4272 66.4325L68.2652 66.4915L68.0957 66.5396L67.9187 66.5825L67.7392 66.6148L67.5597 66.6468L67.3678 66.6629L67.1783 66.6791H66.9764L66.7321 66.6738L66.4953 66.6577L66.261 66.6309L66.0391 66.5881L65.8273 66.5396L65.6203 66.4753L65.4259 66.4004L65.239 66.3147L65.0595 66.2237L64.89 66.1165L64.7254 65.9985L64.5709 65.8699L64.4288 65.736L64.2867 65.5859L64.1596 65.4306L64.0374 65.2644L63.9203 65.0876L63.8156 64.9L63.7184 64.7018L63.6236 64.4981L63.5439 64.2837L63.4641 64.0588L63.3968 63.823L63.337 63.5817L63.2846 63.33L63.2373 63.0728L63.1999 62.8047L63.1675 62.5261L63.1425 62.2421L63.1251 61.9473L63.1151 61.6473L63.1101 61.3366V50.0035H56.6787V62.5261V62.8423L56.6887 63.1477L56.7012 63.4425L56.7161 63.7373L56.7386 64.0265L56.7635 64.3104L56.7959 64.5838L56.8283 64.8572L56.8707 65.1197L56.9131 65.3769L56.9604 65.6288L57.0178 65.8752L57.0776 66.1165L57.1399 66.3523L57.2047 66.5825L57.277 66.8024L57.3518 67.022L57.4365 67.2364L57.5163 67.4454L57.6061 67.6489L57.6958 67.8471L57.7855 68.0401L57.8877 68.2277L57.9875 68.4153L58.0872 68.5921L58.1944 68.7688L58.3065 68.9403L58.4212 69.1012L58.5384 69.2618L58.6605 69.4174L58.7826 69.5675L58.9098 69.712L59.0419 69.8567L59.179 69.9906L59.3161 70.1248L59.4557 70.2478L59.6028 70.3711L59.7474 70.4891L59.8994 70.6016L60.054 70.7088L60.2135 70.8107L60.3706 70.907L60.5351 70.998L60.6996 71.0893L60.8691 71.1695L61.0436 71.2499L61.2181 71.3195L61.4001 71.3894L61.5845 71.4537L61.764 71.5125L61.956 71.5715L62.1404 71.6196L62.3374 71.668L62.5268 71.7109L62.7237 71.7538L62.9257 71.7858L63.1251 71.8181L63.327 71.8448L63.5339 71.8662L63.7408 71.8877L63.9527 71.9038L64.1646 71.9091L64.3814 71.9197H64.5983H64.7903L64.9747 71.9144L65.1542 71.9091L65.3337 71.8983L65.5157 71.8824L65.6901 71.8662L65.8646 71.8501L66.0342 71.8234L66.1987 71.8019L66.3632 71.7697L66.5277 71.7429L66.6848 71.7054L66.8393 71.6733L66.9939 71.6305L67.1459 71.5876L67.2955 71.5447L67.5797 71.4481L67.8614 71.3465L68.1256 71.2394L68.3849 71.1322L68.6341 71.0142L68.8734 70.8964L69.1003 70.7678L69.3172 70.6392L69.524 70.505L69.726 70.3711L69.9179 70.2319L70.1024 70.0925L70.2769 69.9477L70.4414 69.7977L70.5959 69.6476L70.743 69.4923L70.8851 69.3423L71.0197 69.1922L71.1394 69.0475L71.2565 68.9083L71.3687 68.7744L71.4684 68.6402L71.5582 68.5172L71.6429 68.3886L72.4705 71.4323H77.6929V50.0136H71.1668V50.0136Z" fill="#404144"/>
<path fill-rule="evenodd" clip-rule="evenodd" d="M19.8322 42.8494V50.0035H16.8286V54.8856H19.8322V63.5978L19.8374 63.8659L19.8426 64.1284L19.8481 64.3909L19.8586 64.6428L19.8745 64.8947L19.8957 65.1411L19.9169 65.3822L19.9433 65.6235L19.9698 65.8537L20.0017 66.0842L20.0388 66.3094L20.0812 66.5291L20.1236 66.7434L20.1712 66.9577L20.2188 67.1612L20.2719 67.365L20.33 67.5632L20.3935 67.7561L20.4571 67.9437L20.5262 68.1258L20.6002 68.3081L20.6745 68.4796L20.7538 68.6511L20.8385 68.8117L20.9233 68.9726L21.0135 69.1279L21.1087 69.278L21.2094 69.428L21.3101 69.5675L21.4161 69.7014L21.5273 69.8353L21.6384 69.9586L21.7444 70.0658L21.8503 70.1729L21.9615 70.2748L22.0729 70.3764L22.1946 70.473L22.3165 70.5693L22.4488 70.6659L22.5815 70.757L22.7138 70.848L22.8569 70.9337L22.9997 71.0142L23.1481 71.0999L23.3019 71.1751L23.4554 71.2499L23.6197 71.3251L23.7785 71.3894L23.948 71.459L24.1175 71.518L24.2923 71.5768L24.4672 71.6305L24.6472 71.6839L24.8327 71.7268L25.0179 71.7697L25.2098 71.8072L25.3993 71.8448L25.5962 71.8768L25.7907 71.8983L25.9926 71.9197L26.1945 71.9412L26.4014 71.952L26.6083 71.9573L26.8202 71.9626L27.1692 71.9573L27.4907 71.9467L27.7949 71.9306L28.0691 71.9091L28.3283 71.8824L28.5676 71.8501L28.7945 71.8125L29.0014 71.7697L29.2033 71.7268L29.3878 71.6786L29.5622 71.6252L29.7367 71.5715L30.0658 71.4537L30.3899 71.3304V66.3523L30.3051 66.3843L30.1929 66.4166L30.0608 66.4486L29.8963 66.4753L29.7118 66.5023L29.5049 66.5182L29.2831 66.5343L29.0437 66.5396L28.8319 66.5343L28.6349 66.5238L28.4455 66.5023L28.266 66.47L28.0965 66.4325L27.937 66.3896L27.7824 66.3361L27.6403 66.2718L27.5082 66.2022L27.3811 66.1271L27.2589 66.0361L27.1517 65.945L27.047 65.8431L26.9523 65.736L26.8626 65.618L26.7828 65.4894L26.708 65.3607L26.6382 65.2162L26.5759 65.0715L26.5161 64.9162L26.4687 64.75L26.4213 64.5838L26.3839 64.4017L26.3466 64.2194L26.3216 64.0265L26.2942 63.823L26.2743 63.6192L26.2568 63.4049L26.2468 63.18L26.2369 62.9548L26.2319 62.719V62.4779V54.8856H30.3201V50.0035H26.2319V42.8494H19.8322V42.8494Z" fill="#404144"/>
<path fill-rule="evenodd" clip-rule="evenodd" d="M68.7363 42.8444L64.7628 48.6216H69.3595L74.9608 42.8444H68.7363V42.8444Z" fill="#404144"/>
</g>
<defs>
<clipPath id="clip0_2189_8">
<rect width="84.667" height="85.725" fill="white"/>
</clipPath>
</defs>
</svg>
