<svg xmlns="http://www.w3.org/2000/svg" width="250px" viewBox="0 0 272.62 150.29"><defs><style>.cls-1{fill:none;stroke:#5BBE42;stroke-miterlimit:10;stroke-width:5px;}</style></defs><title>mountain</title><g id="Camada_2" data-name="Camada 2"><path class="cls-1" d="M107,312.05l111.33-83.5" transform="translate(-105.51 -167.03)"/><path class="cls-1" d="M366.67,315.16,216,229.29" transform="translate(-105.51 -167.03)"/><path class="cls-1" d="M217,230.77l-.54-61.18c15,.33,29.63.06,44.6.4,4.65.1,10.15.69,12.41,4.75,1.05,1.9,1.12,4.16,1.17,6.32L275,196c.08,3.4,0,7.2-2.42,9.59s-6,2.43-9.29,2.4l-47.09-.4" transform="translate(-105.51 -167.03)"/><path class="cls-1" d="M277.31,262.83l33.24-27.59c3-2.47,6.17-5,10-5.55,4.82-.65,9.38,2.08,13.47,4.7l42.76,27.36" transform="translate(-105.51 -167.03)"/><path class="cls-1" d="M169.42,266.47c4.51,6.59,13.32,9,21.27,8.31s15.41-3.91,23-6.46S221.28,267,229,269s20.66,14.05,20,22" transform="translate(-105.51 -167.03)"/></g></svg>