<svg width="239" height="42" viewBox="0 0 239 42" fill="none" xmlns="http://www.w3.org/2000/svg">
<g clip-path="url(#clip0_2189_19)">
<path d="M31.5 19.1C31.4 17.6 31 16.1 30.2 14.8L23.4 2.9C22.9 2 22.5 1 22.3 0L22 0.5C20.3 3.4 20.3 7.1 22 10L27.5 19.5C29.2 22.4 29.2 26.1 27.5 29L27.2 29.5C27 28.5 26.6 27.5 26.1 26.6L21.1 17.9L17.9 12.3C17.4 11.4 17 10.4 16.8 9.4L16.5 9.9C14.8 12.8 14.8 16.4 16.5 19.4L22 28.9C23.7 31.8 23.7 35.5 22 38.4L21.7 38.9C21.5 37.9 21.1 36.9 20.6 36L13.7 24.1C12.8 22.5 12.4 20.7 12.4 18.9C5.1 20.8 0 24.9 0 29.6C0 36.2 9.8 41.5 21.9 41.5C34 41.5 43.8 36.2 43.8 29.6C43.9 25.1 38.9 21 31.5 19.1ZM52.2 39.4C52.3 37.7 52.5 36.6 53 35.2C55.3 36.3 58.3 36.8 60.5 36.8C64.3 36.8 66.5 35.6 66.5 33.1C66.5 30.7 64.9 29.6 61.1 27.9L59 27.1C55.1 25.4 52.5 23.2 52.5 18.9C52.5 14.2 55.8 11.2 62.4 11.2C65.1 11.2 67.6 11.6 69.9 12.4C69.8 14 69.5 15.3 69.1 16.5C66.9 15.7 64.2 15.3 62.3 15.3C58.7 15.3 57.1 16.7 57.1 18.9C57.1 21 58.7 22.3 61.6 23.5L63.8 24.4C69 26.6 71.2 29 71.2 33C71.2 37.7 67.6 41 60.6 41C57.3 41 54.5 40.5 52.2 39.4V39.4ZM93.3 19.7V40.3H89.1L88.9 37.8C87.7 39.6 86 40.8 83.1 40.8C77.7 40.8 74 36.8 74 29.9C74 22.7 77.9 18.5 85.5 18.5C88.5 18.6 91 18.9 93.3 19.7V19.7ZM88.8 35.6V22.7C87.9 22.5 86.8 22.5 85.5 22.5C80.8 22.5 78.6 25.4 78.6 30C78.6 34.2 80.3 37.2 84.3 37.2C86.2 37.1 87.6 36.5 88.8 35.6ZM116.5 26.5V40.3H112V27.3C112 24 110.9 22.5 106.4 22.5C105.3 22.5 104.1 22.6 102.8 22.8V40.3H98.3V19.7C101.2 19 104.4 18.5 106.5 18.5C114.1 18.6 116.5 21.5 116.5 26.5V26.5ZM129.1 37C130.4 37 131.7 36.8 132.6 36.4C132.5 37.6 132.3 39 132.1 40.2C130.9 40.7 129.5 40.9 128.3 40.9C123.9 40.9 121.1 38.9 121.1 33.9V12.2C122.5 11.7 124.2 11.5 125.6 11.5V19.3H132.8C132.7 20.7 132.6 22 132.4 23.2H125.6V33.3C125.6 35.9 126.9 37 129.1 37V37ZM153.4 19.7V40.3H149.2L149 37.8C147.8 39.6 146.1 40.8 143.2 40.8C137.8 40.8 134.1 36.8 134.1 29.9C134.1 22.7 138 18.5 145.6 18.5C148.6 18.6 151 18.9 153.4 19.7V19.7ZM148.8 35.6V22.7C147.9 22.5 146.8 22.5 145.5 22.5C140.8 22.5 138.6 25.4 138.6 30C138.6 34.2 140.3 37.2 144.3 37.2C146.2 37.1 147.7 36.5 148.8 35.6V35.6ZM176.6 26.5V40.3H172V27.3C172 24 170.9 22.5 166.4 22.5C165.3 22.5 164.1 22.6 162.8 22.8V40.3H158.3V19.7C161.2 19 164.4 18.5 166.5 18.5C174.1 18.6 176.6 21.5 176.6 26.5V26.5ZM199.5 11.5V40.3H195.3L195.1 37.7C193.9 39.6 192.2 40.8 189.2 40.8C183.8 40.8 180.1 36.8 180.1 29.9C180.1 22.7 184 18.5 191.6 18.5C192.8 18.5 193.9 18.6 195 18.8V12C196.4 11.6 198 11.5 199.5 11.5V11.5ZM195 35.6V22.9C193.8 22.7 192.6 22.5 191.4 22.5C186.9 22.5 184.8 25.3 184.8 30C184.8 34.2 186.5 37.2 190.5 37.2C192.3 37.1 193.8 36.5 195 35.6ZM222.3 31.5H207.8C208.4 35.2 210.5 36.9 214.6 36.9C217.1 36.9 219.6 36.4 221.8 35.3C221.6 36.5 221.4 38.1 221.1 39.4C219 40.3 216.9 40.7 214.4 40.7C206.8 40.7 203.2 36.5 203.2 29.5C203.2 23.4 206 18.5 213.2 18.5C219.7 18.5 222.5 22.7 222.5 27.9C222.5 29.3 222.5 30.3 222.3 31.5V31.5ZM207.8 27.7H218C218 24.3 216.2 22.3 213.1 22.3C209.8 22.4 208.1 24.2 207.8 27.7V27.7ZM238.2 18.8C238.2 20.2 238 21.8 237.8 22.7C236.7 22.6 235.7 22.5 234.4 22.5C233.3 22.5 232.2 22.6 231.1 22.7V40.3H226.6V19.7C228.5 19 231.8 18.5 234.3 18.5C235.6 18.6 237.2 18.6 238.2 18.8V18.8Z" fill="white"/>
</g>
<defs>
<clipPath id="clip0_2189_19">
<rect width="238.2" height="41.5" fill="white"/>
</clipPath>
</defs>
</svg>
