<?xml version="1.0" encoding="UTF-8" standalone="no"?>
<svg width="200" height="200" viewBox="0 0 200 200" style="fill: rgb(255, 255, 255); width: 24px; height: 24px; padding: 4px; filter: drop-shadow(rgba(0, 0, 0, 0.25) 0px 0.5px 1px);"><path d="M65 16.6667H135C161.667 16.6667 183.333 38.3334 183.333 65.0001V135C183.333 147.819 178.241 160.113 169.177 169.177C160.113 178.241 147.819 183.333 135 183.333H65C38.3333 183.333 16.6667 161.667 16.6667 135V65.0001C16.6667 52.1813 21.7589 39.8875 30.8232 30.8233C39.8874 21.759 52.1812 16.6667 65 16.6667ZM63.3333 33.3334C55.3768 33.3334 47.7462 36.4941 42.1201 42.1202C36.494 47.7463 33.3333 55.3769 33.3333 63.3334V136.667C33.3333 153.25 46.75 166.667 63.3333 166.667H136.667C144.623 166.667 152.254 163.506 157.88 157.88C163.506 152.254 166.667 144.623 166.667 136.667V63.3334C166.667 46.7501 153.25 33.3334 136.667 33.3334H63.3333ZM143.75 45.8334C146.513 45.8334 149.162 46.9309 151.116 48.8844C153.069 50.8379 154.167 53.4874 154.167 56.2501C154.167 59.0128 153.069 61.6623 151.116 63.6158C149.162 65.5693 146.513 66.6668 143.75 66.6668C140.987 66.6668 138.338 65.5693 136.384 63.6158C134.431 61.6623 133.333 59.0128 133.333 56.2501C133.333 53.4874 134.431 50.8379 136.384 48.8844C138.338 46.9309 140.987 45.8334 143.75 45.8334ZM100 58.3334C111.051 58.3334 121.649 62.7233 129.463 70.5373C137.277 78.3513 141.667 88.9494 141.667 100C141.667 111.051 137.277 121.649 129.463 129.463C121.649 137.277 111.051 141.667 100 141.667C88.9493 141.667 78.3512 137.277 70.5372 129.463C62.7232 121.649 58.3333 111.051 58.3333 100C58.3333 88.9494 62.7232 78.3513 70.5372 70.5373C78.3512 62.7233 88.9493 58.3334 100 58.3334ZM100 75.0001C93.3696 75.0001 87.0107 77.634 82.3223 82.3224C77.6339 87.0108 75 93.3697 75 100C75 106.631 77.6339 112.989 82.3223 117.678C87.0107 122.366 93.3696 125 100 125C106.63 125 112.989 122.366 117.678 117.678C122.366 112.989 125 106.631 125 100C125 93.3697 122.366 87.0108 117.678 82.3224C112.989 77.634 106.63 75.0001 100 75.0001Z"></path></svg>